<?xml version="1.0" standalone="no"?>
<!DOCTYPE svg PUBLIC "-//W3C//DTD SVG 20010904//EN"
 "http://www.w3.org/TR/2001/REC-SVG-20010904/DTD/svg10.dtd">
<svg version="1.0" xmlns="http://www.w3.org/2000/svg"
 width="589.000000pt" height="589.000000pt" viewBox="0 0 589.000000 589.000000"
 preserveAspectRatio="xMidYMid meet">
<metadata>
Created by potrace 1.14, written by Peter Selinger 2001-2017
</metadata>
<g transform="translate(0.000000,589.000000) scale(0.100000,-0.100000)"
fill="#000000" stroke="none">
<path d="M724 4317 l-612 -612 2 -173 1 -172 610 -610 c336 -336 616 -610 623
-610 8 0 41 27 75 60 34 33 65 60 70 60 4 0 7 6 8 13 1 6 36 44 79 82 43 39
78 73 79 76 1 4 14 21 30 38 16 17 28 38 27 47 -1 8 -143 156 -314 327 -172
172 -312 318 -312 325 0 6 8 12 18 13 85 5 572 9 1452 13 575 3 1160 6 1300 7
281 1 367 -3 494 -27 51 -9 178 -59 238 -92 79 -44 127 -80 188 -142 66 -66
78 -83 132 -178 40 -73 73 -179 84 -277 11 -98 9 -145 -12 -270 -4 -27 -8 -53
-9 -57 0 -3 -3 -10 -7 -14 -5 -4 -8 -15 -8 -24 0 -42 -146 -287 -173 -289 -4
-1 -21 -16 -37 -34 -16 -19 -48 -47 -72 -63 -24 -16 -45 -31 -48 -34 -15 -15
-148 -72 -212 -90 -105 -30 -135 -32 -524 -34 -266 -1 -355 -4 -366 -14 -13
-10 -15 -39 -12 -185 2 -94 5 -243 7 -329 1 -86 6 -161 11 -165 9 -9 705 -9
806 0 185 17 323 51 468 118 35 16 65 29 67 29 13 0 213 128 235 150 3 3 34
30 70 60 36 30 67 58 68 62 2 5 9 8 15 9 12 1 112 113 176 198 19 26 37 48 41
51 9 9 82 130 115 194 31 59 83 200 104 281 44 171 54 388 27 570 -3 17 -7 45
-10 63 -9 57 -46 185 -66 229 -11 24 -20 45 -20 49 0 18 -73 151 -122 223
-136 199 -366 416 -533 503 -22 11 -42 23 -45 27 -5 6 -43 25 -130 64 -52 23
-180 66 -245 83 -16 4 -32 8 -35 9 -3 0 -27 5 -55 9 -27 5 -61 11 -75 13 -66
11 -175 15 -395 14 -1531 -2 -2865 -3 -2887 0 -16 2 -28 6 -28 8 0 3 144 149
320 326 261 262 318 324 314 341 -3 12 -46 61 -95 109 -49 49 -89 93 -89 98 0
6 -2 8 -5 5 -7 -7 -75 61 -75 75 0 6 -3 8 -6 4 -3 -3 -19 9 -35 28 -59 67 -14
105 -685 -568z"/>
</g>
</svg>
